<svg width="24" height="24" viewBox="0 0 24 24" fill="none" xmlns="http://www.w3.org/2000/svg">
<circle cx="12" cy="12" r="12" fill="url(#paint0_linear_592_357)"/>
<path d="M11.829 16.446C11.0263 16.446 10.3357 16.3013 9.757 16.012C9.18767 15.7133 8.749 15.2933 8.441 14.752C8.14233 14.2013 7.993 13.5527 7.993 12.806V6.45H9.841V12.862C9.841 13.4593 10.009 13.9307 10.345 14.276C10.6903 14.6213 11.185 14.794 11.829 14.794C12.473 14.794 12.963 14.6213 13.299 14.276C13.6443 13.9307 13.817 13.4593 13.817 12.862V6.45H15.665V12.806C15.665 13.5527 15.511 14.2013 15.203 14.752C14.9043 15.2933 14.4657 15.7133 13.887 16.012C13.3177 16.3013 12.6317 16.446 11.829 16.446Z" fill="white"/>
<line x1="6" y1="10.5" x2="17.25" y2="10.5" stroke="white"/>
<path d="M6 13H17.25" stroke="white"/>
<defs>
<linearGradient id="paint0_linear_592_357" x1="1.11759e-08" y1="12" x2="26.8125" y2="12" gradientUnits="userSpaceOnUse">
<stop stop-color="#6717CE"/>
<stop offset="0.585531" stop-color="#4941E3"/>
<stop offset="1" stop-color="#2871FB"/>
</linearGradient>
</defs>
</svg>
