<svg width="24" height="24" viewBox="0 0 24 24" fill="none" xmlns="http://www.w3.org/2000/svg">
<circle cx="12" cy="12" r="12" fill="url(#paint0_linear_592_339)"/>
<path d="M12.376 18.224C11.4587 18.224 10.6693 18.0587 10.008 17.728C9.35733 17.3867 8.856 16.9067 8.504 16.288C8.16267 15.6587 7.992 14.9173 7.992 14.064V6.8H10.104V14.128C10.104 14.8107 10.296 15.3493 10.68 15.744C11.0747 16.1387 11.64 16.336 12.376 16.336C13.112 16.336 13.672 16.1387 14.056 15.744C14.4507 15.3493 14.648 14.8107 14.648 14.128V6.8H16.76V14.064C16.76 14.9173 16.584 15.6587 16.232 16.288C15.8907 16.9067 15.3893 17.3867 14.728 17.728C14.0773 18.0587 13.2933 18.224 12.376 18.224Z" fill="white"/>
<defs>
<linearGradient id="paint0_linear_592_339" x1="1.11759e-08" y1="12" x2="26.8125" y2="12" gradientUnits="userSpaceOnUse">
<stop stop-color="#6717CE"/>
<stop offset="0.585531" stop-color="#4941E3"/>
<stop offset="1" stop-color="#2871FB"/>
</linearGradient>
</defs>
</svg>
